<svg xmlns="http://www.w3.org/2000/svg" viewBox="0 0 200 200" width="200" height="200">
  <defs>
    <linearGradient id="premiumGreenGrad" x1="0%" y1="0%" x2="100%" y2="100%">
      <stop offset="0%" stop-color="#00FFCC" />
      <stop offset="20%" stop-color="#00E676" />
      <stop offset="60%" stop-color="#00B0FF" />
      <stop offset="85%" stop-color="#004D40" />
      <stop offset="100%" stop-color="#00241A" />
    </linearGradient>

    <linearGradient id="mirrorHighlight" x1="0%" y1="0%" x2="100%" y2="100%">
      <stop offset="0%" stop-color="#FFFFFF" stop-opacity="0.95" />
      <stop offset="30%" stop-color="#FFFFFF" stop-opacity="0.4" />
      <stop offset="100%" stop-color="#FFFFFF" stop-opacity="0.0" />
    </linearGradient>

    <linearGradient id="liquidWave" x1="0%" y1="0%" x2="0%" y2="100%">
      <stop offset="0%" stop-color="#FFFFFF" stop-opacity="0.6" />
      <stop offset="100%" stop-color="#FFFFFF" stop-opacity="0.0" />
    </linearGradient>

    <filter id="vipShadow" x="-40%" y="-40%" width="180%" height="180%">
      <feDropShadow dx="0" dy="16" stdDeviation="12" flood-color="#000000" flood-opacity="0.65" />
      <feDropShadow dx="0" dy="6" stdDeviation="4" flood-color="#00FFCC" flood-opacity="0.25" />
    </filter>
  </defs>

  <rect x="15" y="15" width="170" height="170" rx="46" ry="46" fill="url(#premiumGreenGrad)" filter="url(#vipShadow)" />

  <rect x="16" y="16" width="168" height="168" rx="45" ry="45" fill="none" stroke="#001F16" stroke-width="3" opacity="0.7" />

  <rect x="19" y="19" width="162" height="162" rx="43" ry="43" fill="none" stroke="#A7FFEB" stroke-width="2" stroke-opacity="0.6" />

  <path d="M 19,55 
           C 19,34 34,19 55,19 
           L 145,19 
           C 166,19 181,34 181,55 
           C 135,72 65,75 19,55 Z" 
        fill="url(#liquidWave)" />

  <path d="M 25,25 L 140,25 C 100,80 40,140 25,170 Z" fill="url(#mirrorHighlight)" opacity="0.15" />

  <path d="M 25,140 C 60,125 140,125 175,140 C 170,165 155,175 135,175 L 65,175 C 45,175 30,165 25,140 Z" fill="#00FFCC" opacity="0.35" filter="blur(5px)" />

  <ellipse cx="48" cy="38" rx="14" ry="7" fill="#FFFFFF" opacity="0.85" transform="rotate(-15 48 38)" />
  <ellipse cx="32" cy="55" rx="6" ry="3" fill="#FFFFFF" opacity="0.6" transform="rotate(-15 32 55)" />
</svg>